# xmcd CD database file
#
# Track frame offsets:
#	150
#	16564
#	32643
#	46756
#	63763
#	77593
#	92474
#	107227
#	122869
#	131929
#	144916
#	162010
#	173164
#	188819
#	203762
#	219485
#	230438
#	239413
#	251845
#	267763
#
# Disc length: 3732 seconds
#
# Revision: 0
# Processed by: cddbd v1.5PL3 Copyright (c) Steve Scherf et al.
# Submitted via: CDex 1.51
#
DISCID=060e9214
DTITLE=Gino and Geno - As 20 Mais Vol. 2
DYEAR=2003
DGENRE=Country
TTITLE0=Ela Chorou de Amor
TTITLE1=Quando Ele Quer
TTITLE2=Linda Cigana
TTITLE3=Mulher Que Nao Da Voa
TTITLE4=Tem Jeito Nao
TTITLE5=As Aguas do Sao Francisco
TTITLE6=Deixe Seu Recado
TTITLE7=Macaco Velho
TTITLE8=Morena Bonita
TTITLE9=Sou Feio Mas To Na Moda
TTITLE10=Lorota
TTITLE11=Convite de Baile
TTITLE12=Perguntando A Deus
TTITLE13=O Gato Comeu
TTITLE14=Esquina da Saudade
TTITLE15=Bate Coxa
TTITLE16=Vou Gastar O Barao
TTITLE17=Roubando A Morena
TTITLE18=Coracao Cigano
TTITLE19=Historia da Goteira
EXTD=YEAR: 2003
EXTT0=
EXTT1=
EXTT2=
EXTT3=
EXTT4=
EXTT5=
EXTT6=
EXTT7=
EXTT8=
EXTT9=
EXTT10=
EXTT11=
EXTT12=
EXTT13=
EXTT14=
EXTT15=
EXTT16=
EXTT17=
EXTT18=
EXTT19=
PLAYORDER=
